<mxfile host="app.diagrams.net" modified="2024-06-04T01:48:11.195Z" agent="Mozilla/5.0 (Windows NT 10.0; Win64; x64) AppleWebKit/537.36 (KHTML, like Gecko) Chrome/116.0.0.0 Safari/537.36" version="24.4.7" etag="R8lDVO9X4HNgCg0rwNVl" type="github">
  <diagram name="第 1 页" id="-QH05XIZRaGhEnAUSbaO">
    <mxGraphModel>
      <root>
        <mxCell id="0" />
        <mxCell id="1" parent="0" />
      </root>
    </mxGraphModel>
  </diagram>
</mxfile>
